<svg xmlns="http://www.w3.org/2000/svg" width="16" height="16" viewBox="0 0 16 16">
    <g fill="none" fill-rule="evenodd">
        <g fill="#4A4A4A">
            <path d="M38 76c4.411 0 8 3.589 8 8s-3.589 8-8 8-8-3.589-8-8 3.589-8 8-8zm0 1c-3.86 0-7 3.14-7 7s3.14 7 7 7 7-3.14 7-7-3.14-7-7-7zm1.671 1.39c.075-.09.203-.117.307-.064.105.054.158.172.129.286l-1.034 3.977h2.487c.097 0 .185.056.226.142.042.088.029.191-.032.266l-5.425 6.612c-.049.06-.12.091-.193.091-.038 0-.077-.009-.113-.027-.105-.053-.159-.172-.13-.285l1.035-3.977H34.44c-.097 0-.185-.055-.226-.143-.042-.087-.029-.19.032-.265z" transform="translate(-30 -76)"/>
        </g>
    </g>
</svg>
