<svg xmlns="http://www.w3.org/2000/svg" width="16" height="16" viewBox="0 0 16 16">
    <g fill="none" fill-rule="evenodd">
        <g fill="#4A4A4A">
            <path d="M45 184c.552 0 1 .448 1 1v10c0 .552-.448 1-1 1H31c-.552 0-1-.448-1-1v-10c0-.552.448-1 1-1h14zm0 .8H31c-.095 0-.174.066-.195.154L30.8 185v10c0 .095.066.174.154.195l.046.005h14c.095 0 .174-.066.195-.154L45.2 195v-10c0-.095-.066-.174-.154-.195L45 184.8zM35 188v3h6v-3h1v3c0 .513-.386.936-.883.993L41 192h-6c-.552 0-1-.448-1-1v-3h1zm8.5-6c.276 0 .5.224.5.5s-.224.5-.5.5h-11c-.276 0-.5-.224-.5-.5s.224-.5.5-.5h11zm-2-2c.276 0 .5.224.5.5s-.224.5-.5.5h-7c-.276 0-.5-.224-.5-.5s.224-.5.5-.5h7z" transform="translate(-30 -180)"/>
        </g>
    </g>
</svg>
