<svg xmlns="http://www.w3.org/2000/svg" width="16" height="16" viewBox="0 0 16 16">
    <g fill="none" fill-rule="evenodd">
        <g fill="#4A4A4A">
            <path d="M45.834 131.5l-3.671-3.332c-.112-.101-.242-.15-.39-.15L34.32 128c-.351 0-.685.118-.926.354-.242.218-.39.521-.39.84v1.548h-1.687c-.352 0-.686.118-.927.354-.242.219-.39.522-.39.841v10.868c0 .656.593 1.195 1.317 1.195H41.68c.722 0 1.316-.538 1.316-1.195v-1.53h1.687c.723 0 1.317-.54 1.317-1.196v-8.21c0-.134-.074-.269-.167-.37zm-3.505-1.734l1.743 1.582h-1.743v-1.582zm-.463 13.021c0 .084-.093.169-.186.169H31.3c-.093 0-.186-.085-.186-.169V131.92c0-.067.037-.101.056-.118.019-.017.056-.05.13-.05h1.687v8.31c0 .656.593 1.195 1.316 1.195h7.546v1.53h.018zm2.818-2.557H34.302c-.111 0-.185-.084-.185-.168v-10.867c0-.067.037-.102.056-.118.019-.017.074-.05.13-.05l6.878.016v2.827c0 .286.259.505.556.505h3.096v7.688c.037.083-.056.167-.149.167z" transform="translate(-30 -128)"/>
        </g>
    </g>
</svg>
