<svg xmlns="http://www.w3.org/2000/svg" width="16" height="16" viewBox="0 0 16 16">
    <g fill="none" fill-rule="evenodd">
        <g fill="#4A4A4A">
            <path d="M12.095 10.597c.185-.14.454-.053.521.175l.908 2.763c.102.28-.15.542-.42.455l-.656-.21c-.555 1.556-2.102 2.449-3.665 2.17-.118-.019-.152-.211-.05-.28.84-.578 1.496-1.418 1.85-2.467l-.64-.21c-.27-.087-.32-.455-.101-.63l2.253-1.766zm-7.349-.42c1.345 0 2.472 1.032 2.64 2.43l.252 2.24c.034.297-.15.56-.42.63-1.076.245-2.22.367-3.397.367-1.193 0-2.32-.123-3.397-.368-.269-.07-.454-.332-.42-.63l.252-2.238c.168-1.381 1.295-2.43 2.64-2.43l1.85-.001zm8.324-4.319c1.346 0 2.472 1.032 2.64 2.43l.286 2.239c.034.297-.151.56-.42.63-.538.122-1.093.192-1.665.262l-.32-.997c-.202-.56-.706-.944-1.278-.944-.302 0-.572.105-.807.28l-1.967 1.54c-.27-.036-.522-.088-.774-.14-.286-.071-.454-.334-.42-.63l.252-2.24c.152-1.38 1.295-2.43 2.624-2.43h1.849zM3.821 4.319c1.375 0 2.49 1.159 2.49 2.589 0 1.429-1.115 2.588-2.49 2.588-1.374 0-2.489-1.16-2.489-2.588 0-1.43 1.115-2.589 2.49-2.589h-.001zM12.163 0c1.374 0 2.489 1.159 2.489 2.588 0 1.43-1.115 2.588-2.49 2.588-1.374 0-2.488-1.159-2.488-2.588C9.674 1.158 10.788 0 12.163 0z" transform="translate(-30 -683) translate(30 683)"/>
        </g>
    </g>
</svg>
