<svg width="14" height="14" viewBox="0 0 14 14" fill="none" xmlns="http://www.w3.org/2000/svg">
<path d="M9.91671 5.24999V4.08332C9.91671 2.44999 8.63337 1.16666 7.00004 1.16666C5.36671 1.16666 4.08337 2.44999 4.08337 4.08332V5.24999C3.09171 5.24999 2.33337 6.00832 2.33337 6.99999V11.0833C2.33337 12.075 3.09171 12.8333 4.08337 12.8333H9.91671C10.9084 12.8333 11.6667 12.075 11.6667 11.0833V6.99999C11.6667 6.00832 10.9084 5.24999 9.91671 5.24999ZM5.25004 4.08332C5.25004 3.09166 6.00837 2.33332 7.00004 2.33332C7.99171 2.33332 8.75004 3.09166 8.75004 4.08332V5.24999H5.25004V4.08332ZM7.64171 9.04166L7.58337 9.09999V9.91666C7.58337 10.2667 7.35004 10.5 7.00004 10.5C6.65004 10.5 6.41671 10.2667 6.41671 9.91666V9.09999C6.06671 8.74999 6.00837 8.22499 6.35837 7.87499C6.70837 7.52499 7.23337 7.46666 7.58337 7.81666C7.93337 8.10832 7.99171 8.69166 7.64171 9.04166Z" fill="url(#paint0_linear_45_209)"/>
<defs>
<linearGradient id="paint0_linear_45_209" x1="2.67277" y1="8.69354" x2="11.0105" y2="8.68578" gradientUnits="userSpaceOnUse">
<stop stop-color="#E39C3C"/>
<stop offset="1" stop-color="#E49A3E"/>
</linearGradient>
</defs>
</svg>
