<svg xmlns="http://www.w3.org/2000/svg" width="12" height="16" viewBox="0 0 12 16">
    <g fill="none" fill-rule="evenodd">
        <g fill="#007AFF">
            <g>
                <path d="M6 0c.74 0 1.387.402 1.732 1H8.5c.276 0 .5.224.5.5V2h2c.552 0 1 .448 1 1v12c0 .552-.448 1-1 1H1c-.552 0-1-.448-1-1V3c0-.552.448-1 1-1h2v-.5c0-.276.224-.5.5-.5h.768C4.613.402 5.26 0 6 0zm5 3H9v1H3V3H1v12h10V3zm-4 8v1H3v-1h4zm2-2v1H3V9h6zm0-2v1H3V7h6zM6 1c-.276 0-.5.224-.5.5s.224.5.5.5.5-.224.5-.5S6.276 1 6 1z" transform="translate(-963 -176) translate(744 120) translate(219 56)"/>
            </g>
        </g>
    </g>
</svg>
