<svg width="10" height="14" viewBox="0 0 10 14" fill="none" xmlns="http://www.w3.org/2000/svg">
<path d="M5.58325 8.02539H3.24992C3.09521 8.02539 2.94684 8.09124 2.83744 8.20845C2.72804 8.32566 2.66659 8.48463 2.66659 8.65039C2.66659 8.81615 2.72804 8.97512 2.83744 9.09233C2.94684 9.20954 3.09521 9.27539 3.24992 9.27539H5.58325C5.73796 9.27539 5.88633 9.20954 5.99573 9.09233C6.10513 8.97512 6.16659 8.81615 6.16659 8.65039C6.16659 8.48463 6.10513 8.32566 5.99573 8.20845C5.88633 8.09124 5.73796 8.02539 5.58325 8.02539ZM7.91659 1.77539H7.22825C7.1079 1.41067 6.88521 1.09476 6.59071 0.870977C6.2962 0.64719 5.9443 0.526478 5.58325 0.525391H4.41659C4.05553 0.526478 3.70364 0.64719 3.40913 0.870977C3.11463 1.09476 2.89193 1.41067 2.77159 1.77539H2.08325C1.61912 1.77539 1.174 1.97293 0.845815 2.32457C0.517626 2.6762 0.333252 3.15311 0.333252 3.65039V11.1504C0.333252 11.6477 0.517626 12.1246 0.845815 12.4762C1.174 12.8278 1.61912 13.0254 2.08325 13.0254H7.91659C8.38071 13.0254 8.82583 12.8278 9.15402 12.4762C9.48221 12.1246 9.66659 11.6477 9.66659 11.1504V3.65039C9.66659 3.15311 9.48221 2.6762 9.15402 2.32457C8.82583 1.97293 8.38071 1.77539 7.91659 1.77539ZM3.83325 2.40039C3.83325 2.23463 3.89471 2.07566 4.00411 1.95845C4.1135 1.84124 4.26188 1.77539 4.41659 1.77539H5.58325C5.73796 1.77539 5.88633 1.84124 5.99573 1.95845C6.10513 2.07566 6.16659 2.23463 6.16659 2.40039V3.02539H3.83325V2.40039ZM8.49992 11.1504C8.49992 11.3162 8.43846 11.4751 8.32907 11.5923C8.21967 11.7095 8.0713 11.7754 7.91659 11.7754H2.08325C1.92854 11.7754 1.78017 11.7095 1.67077 11.5923C1.56138 11.4751 1.49992 11.3162 1.49992 11.1504V3.65039C1.49992 3.48463 1.56138 3.32566 1.67077 3.20845C1.78017 3.09124 1.92854 3.02539 2.08325 3.02539H2.66659V3.65039C2.66659 3.81615 2.72804 3.97512 2.83744 4.09233C2.94684 4.20954 3.09521 4.27539 3.24992 4.27539H6.74992C6.90463 4.27539 7.053 4.20954 7.1624 4.09233C7.27179 3.97512 7.33325 3.81615 7.33325 3.65039V3.02539H7.91659C8.0713 3.02539 8.21967 3.09124 8.32907 3.20845C8.43846 3.32566 8.49992 3.48463 8.49992 3.65039V11.1504ZM6.74992 5.52539H3.24992C3.09521 5.52539 2.94684 5.59124 2.83744 5.70845C2.72804 5.82566 2.66659 5.98463 2.66659 6.15039C2.66659 6.31615 2.72804 6.47512 2.83744 6.59233C2.94684 6.70954 3.09521 6.77539 3.24992 6.77539H6.74992C6.90463 6.77539 7.053 6.70954 7.1624 6.59233C7.27179 6.47512 7.33325 6.31615 7.33325 6.15039C7.33325 5.98463 7.27179 5.82566 7.1624 5.70845C7.053 5.59124 6.90463 5.52539 6.74992 5.52539Z" fill="#3E6AD4"/>
</svg>
