<svg xmlns="http://www.w3.org/2000/svg" width="13" height="12" viewBox="0 0 13 12">
    <g fill="none" fill-rule="evenodd">
        <g fill="#007AFF">
            <g>
                <g>
                    <g>
                        <path d="M9 9c.01 0 .018.006.02.016l.205.587c.11.315.357.563.672.672l.588.205c.01.002.015.01.015.02s-.006.018-.015.02l-.588.205c-.315.11-.563.357-.672.672l-.204.587c-.003.01-.012.016-.021.016-.01 0-.018-.006-.021-.016l-.204-.587c-.11-.315-.358-.563-.673-.672l-.587-.205c-.01-.002-.015-.01-.015-.02s.006-.018.015-.02l.587-.205c.315-.11.563-.357.673-.672l.204-.587c.003-.01.01-.016.02-.016zM4.125 2.25c.026 0 .048.016.057.04l.562 1.618c.301.867.982 1.548 1.849 1.849l1.617.562c.024.008.04.03.04.057 0 .025-.016.047-.04.056l-1.617.562c-.867.301-1.548.982-1.85 1.85l-.561 1.616c-.009.024-.031.04-.057.04-.026 0-.048-.016-.057-.04l-.562-1.617c-.301-.867-.982-1.548-1.849-1.85L.04 6.434C.016 6.422 0 6.4 0 6.375c0-.026.016-.049.04-.057l1.617-.562c.867-.3 1.548-.982 1.85-1.849l.561-1.617c.009-.025.031-.041.057-.041zM9.375 0c.017 0 .032.01.036.026l.358 1.03c.192.55.625.984 1.177 1.176l1.029.357c.015.005.025.02.025.036 0 .017-.01.031-.025.036l-1.03.358c-.55.192-.984.625-1.176 1.176l-.358 1.03c-.004.015-.02.026-.036.026-.016 0-.031-.01-.036-.026l-.358-1.03c-.191-.551-.625-.985-1.176-1.176l-1.03-.358c-.014-.005-.025-.02-.025-.036 0-.016.01-.03.026-.036l1.029-.357c.551-.192.985-.625 1.176-1.177L9.34.026C9.344.011 9.359 0 9.375 0z" transform="translate(-338 -413) translate(256 103) translate(32 154) translate(50.5 155) translate(0 1)"/>
                    </g>
                </g>
            </g>
        </g>
    </g>
</svg>
