<svg xmlns="http://www.w3.org/2000/svg" width="16" height="16" viewBox="0 0 16 16">
    <g fill="none" fill-rule="evenodd">
        <g>
            <g transform="translate(-864 -24) translate(864 24)">
                <path fill="#4A4A4A" d="M10.333 13.667C10.333 14.956 9.29 16 8 16c-1.289 0-2.333-1.044-2.333-2.333h4.666zM8 0c.705 0 1.38.121 2.009.345C9.38 1.05 9 1.98 9 3c0 2.21 1.79 4 4 4 .346 0 .68-.044 1-.126v2.793c0 .37.298.666.665.666h-.334c.924 0 1.669.746 1.669 1.667v.333c0 .371-.298.667-.667.667H.667C.298 13 0 12.702 0 12.333V12c0-.92.747-1.667 1.67-1.667h-.335c.366 0 .665-.298.665-.666V6c0-3.315 2.686-6 6-6z"/>
                <circle cx="13" cy="3" r="3" fill="#E45651"/>
            </g>
        </g>
    </g>
</svg>
