<svg width="16" height="16" viewBox="0 0 16 16" fill="none" xmlns="http://www.w3.org/2000/svg">
<g clip-path="url(#clip0_302_4)">
<path d="M9.12593 3.79197V3.89197H9.22593H12.1305L12.1637 3.89557C12.2055 3.90788 12.2359 3.94646 12.2359 3.99196V7.14748V7.24748H12.3359H12.7152V7.26022L12.8262 7.24803L12.8312 7.24748H13.1358V7.23697C14.2081 7.28009 15.0642 8.16307 15.0642 9.24595C15.0642 10.2949 14.2608 11.1563 13.2359 11.2484L13.1359 11.2478H13.1068V11.2466H13.0068H12.8521L12.8257 11.2438L12.7152 11.2322V11.2466H12.3359H12.2359V11.3466V14.4945L12.2322 14.5278C12.2199 14.5696 12.1814 14.6 12.1359 14.6H1.1413L1.10805 14.5963C1.06628 14.584 1.03589 14.5455 1.03589 14.5V12.1319C2.46382 11.9456 3.5664 10.7246 3.5664 9.24592C3.5664 7.76723 2.46382 6.54619 1.03589 6.3599V3.99738L1.03951 3.96412C1.05181 3.92235 1.09039 3.89197 1.13589 3.89197H5.05533H5.15533V3.79197V2.99196V2.962C5.32035 2.01777 6.14437 1.30002 7.13585 1.30002C8.14818 1.30002 8.98592 2.04827 9.12593 3.02185V3.79197ZM0.935889 7.26004H0.972219C1.93228 7.41175 2.6664 8.24318 2.6664 9.24592C2.6664 10.2883 1.87304 11.1456 0.857259 11.2466H0.135889H0.0358887V11.3466V14.5C0.0358887 15.1072 0.528669 15.6 1.13589 15.6H12.1359C12.7431 15.6 13.2359 15.1072 13.2359 14.5V12.1509C14.7585 12.0568 15.9642 10.7922 15.9642 9.24595C15.9642 7.69968 14.7585 6.43505 13.2359 6.34094V3.99196C13.2359 3.38473 12.7431 2.89196 12.1359 2.89196H10.0165C9.81353 1.4828 8.6012 0.400024 7.13585 0.400024C5.6705 0.400024 4.45818 1.4828 4.25513 2.89196H1.13589C0.528669 2.89196 0.0358887 3.38473 0.0358887 3.99196V7.16004V7.26004H0.135889H0.935889Z" fill="#4A4A4A" stroke="#4A4A4A" stroke-width="0.2"/>
</g>
<defs>
<clipPath id="clip0_302_4">
<rect width="16" height="16" fill="white"/>
</clipPath>
</defs>
</svg>
